<?xml version="1.0" encoding="utf-8"?>
<!-- Generator: Adobe Illustrator 19.2.1, SVG Export Plug-In . SVG Version: 6.00 Build 0)  -->
<svg version="1.1" id="Layer_1" xmlns="http://www.w3.org/2000/svg" xmlns:xlink="http://www.w3.org/1999/xlink" x="0px" y="0px"
	 viewBox="0 0 996 255" style="enable-background:new 0 0 996 255;" xml:space="preserve">
<style type="text/css">
	.st0{fill:#222944;}
	.st1{fill:#4E769C;}
</style>
<g>
	<path class="st0" d="M372.9,153l-46-66.6h-15.5v96h17.9v-66.1l45.7,66.1h15.6v-96h-17.8V153z M456.3,117.5
		c-2.4-2.3-5.5-4.2-9.4-5.5c-3.9-1.3-8.8-2-14.8-2c-6.4,0-11.7,0.7-15.8,2.2c-4.2,1.4-7.5,3.6-10,6.4c-2.5,2.8-4.2,6.3-5.2,10.4
		c-1,4.1-1.5,8.9-1.5,14.3v7.6c0,5,0.5,9.5,1.4,13.4c0.9,3.9,2.6,7.2,5,9.9c2.4,2.7,5.6,4.8,9.8,6.2c4.1,1.4,9.4,2.2,15.8,2.2h11.4
		c1.8,0,3.8,0,5.7-0.1c2,0,4.2-0.1,6.7-0.2l2.7-13.5c-5.9,0.2-10.9,0.3-15,0.3h-10.8c-3.2,0-5.8-0.2-7.8-0.7c-2-0.4-3.5-1.3-4.7-2.4
		c-1.1-1.2-1.9-2.8-2.2-4.9c-0.4-2.1-0.5-4.7-0.5-8h35.1c2,0,3.6-0.2,5-0.5c1.3-0.4,2.4-1.1,3.3-2.2c0.9-1.1,1.5-2.6,1.8-4.5
		c0.4-1.9,0.5-4.4,0.5-7.5v-2.3c0-3.8-0.5-7.3-1.5-10.4C460.4,122.7,458.7,119.9,456.3,117.5 M446.1,140.5h-29
		c0-3.4,0.2-6.2,0.5-8.4c0.4-2.2,1.1-4,2.2-5.3c1.1-1.3,2.6-2.2,4.4-2.7c1.9-0.5,4.4-0.7,7.4-0.7c2.8,0,5.1,0.2,7,0.7
		c1.9,0.5,3.4,1.3,4.4,2.4c1.1,1.1,1.8,2.5,2.3,4.3c0.4,1.8,0.7,4,0.7,6.6V140.5z M512.2,126.7l2.8-14.4h-25.2V93.1L472.2,96v60
		c0,5.1,0.4,9.4,1.2,12.8c0.8,3.4,2.3,6.1,4.4,8.2c2.1,2,5,3.4,8.6,4.2c3.6,0.8,8.3,1.2,14,1.2h10.9l2.8-14.4h-12.5
		c-2.4,0-4.4-0.2-6-0.5c-1.6-0.3-2.8-0.9-3.6-1.9c-0.9-0.9-1.4-2.3-1.8-4c-0.3-1.7-0.5-3.9-0.5-6.6v-28.3H512.2z M554.4,168.5
		c-3.1,0-5.8-0.2-7.9-0.6c-2.1-0.4-3.8-1.2-5-2.4c-1.2-1.2-2.1-3-2.6-5.3c-0.5-2.3-0.7-5.4-0.7-9.2v-7.3c0-3.8,0.2-6.8,0.7-9.2
		c0.4-2.3,1.3-4.1,2.5-5.3c1.2-1.2,2.8-2,4.9-2.4c2.1-0.4,4.8-0.6,8.1-0.6c1.6,0,3.8,0,6.7,0.1c2.8,0,6.1,0.2,9.9,0.3l2.8-14.2
		c-8.3-0.3-14.9-0.4-19.8-0.4c-6.2,0-11.4,0.6-15.7,1.7c-4.3,1.1-7.7,2.9-10.4,5.5c-2.7,2.5-4.6,5.8-5.7,9.8
		c-1.2,4-1.8,8.9-1.8,14.7v7.3c0,5.8,0.6,10.8,1.7,14.8c1.1,4,3,7.3,5.7,9.8c2.7,2.5,6.1,4.3,10.4,5.5c4.3,1.1,9.6,1.7,15.8,1.7
		c2.2,0,4.9,0,8.1-0.1c3.2,0,6.3-0.1,9.2-0.2l2.8-14.2c-2.9,0.1-6.1,0.2-9.7,0.2C560.8,168.5,557.5,168.5,554.4,168.5 M611,112
		c-4.5,0-8.5,0.4-12,1.3c-3.5,0.9-6.5,2.2-8.9,4.1c-2.4,1.9-4.3,4.4-5.5,7.5c-1.3,3.1-1.9,6.9-1.9,11.4v46.1h17.5v-43.3
		c0-2.2,0.1-4,0.3-5.6c0.2-1.6,0.8-2.9,1.7-3.9c0.9-1,2.2-1.8,3.8-2.4c1.6-0.5,3.9-0.8,6.7-0.8c1.4,0,3.2,0,5.4,0.1
		c2.2,0,4.1,0.1,5.9,0.2l2.8-14.6c-2.3-0.1-4.7-0.1-7.1-0.1H611z M682.2,117.8C677,114,669,112,658,112c-4.5,0-8.6,0-12.4,0.1
		c-3.8,0-6.9,0.1-9.4,0.2l-2.8,14.2c1.7,0,3.6,0,5.7-0.1c2.1,0,4.2-0.1,6.3-0.1c2.1,0,4.2-0.1,6.3-0.1h5.7c3.1,0,5.6,0.2,7.6,0.5
		c2,0.4,3.6,1,4.8,2c1.2,0.9,2,2.2,2.5,3.8c0.5,1.6,0.7,3.6,0.7,6.1v2.4c-1.5-1-3.8-1.9-6.9-2.6c-3.1-0.8-7-1.1-11.7-1.1
		c-9.4,0-16.2,1.7-20.6,5.1c-4.4,3.4-6.6,8.8-6.6,16.3v3c0,6.7,2,11.9,6,15.5c4,3.6,10.8,5.4,20.4,5.4h22c5.3,0,9-0.9,11.2-2.8
		c2.2-1.8,3.2-5.1,3.2-9.9V136C689.9,127.8,687.3,121.7,682.2,117.8 M672.9,169.7h-17.1c-4.5,0-7.6-0.7-9.2-2.1
		c-1.7-1.4-2.5-3.5-2.5-6.4v-2.6c0-3.3,0.9-5.6,2.7-6.9c1.8-1.3,5.3-1.9,10.4-1.9h2c3,0,5.4,0.2,7.1,0.5c1.8,0.3,3.2,0.8,4.2,1.5
		c1,0.7,1.6,1.6,2,2.8c0.3,1.1,0.5,2.5,0.5,4.1V169.7z M733,168.5c-3.1,0-5.8-0.2-7.9-0.6c-2.1-0.4-3.8-1.2-5-2.4
		c-1.2-1.2-2.1-3-2.6-5.3c-0.5-2.3-0.7-5.4-0.7-9.2v-7.3c0-3.8,0.2-6.8,0.7-9.2c0.4-2.3,1.3-4.1,2.5-5.3c1.2-1.2,2.8-2,4.9-2.4
		c2.1-0.4,4.8-0.6,8.1-0.6c1.6,0,3.8,0,6.7,0.1c2.8,0,6.1,0.2,9.9,0.3l2.8-14.2c-8.3-0.3-14.9-0.4-19.8-0.4
		c-6.2,0-11.4,0.6-15.7,1.7c-4.3,1.1-7.7,2.9-10.4,5.5c-2.7,2.5-4.6,5.8-5.7,9.8c-1.2,4-1.8,8.9-1.8,14.7v7.3
		c0,5.8,0.6,10.8,1.7,14.8c1.1,4,3,7.3,5.7,9.8c2.7,2.5,6.1,4.3,10.4,5.5c4.3,1.1,9.6,1.7,15.8,1.7c2.2,0,4.9,0,8.1-0.1
		c3.2,0,6.3-0.1,9.2-0.2l2.8-14.2c-2.9,0.1-6.1,0.2-9.7,0.2C739.4,168.5,736.1,168.5,733,168.5 M827.8,112.3h-21.2l-26.6,26.6V88.8
		h-17.5v93.7h17.5V150l29,32.4h21.8l-35.3-38.8L827.8,112.3z M885.1,117.5c-2.4-2.3-5.5-4.2-9.4-5.5c-3.9-1.3-8.8-2-14.8-2
		c-6.4,0-11.7,0.7-15.8,2.2c-4.2,1.4-7.5,3.6-10,6.4c-2.5,2.8-4.2,6.3-5.2,10.4c-1,4.1-1.5,8.9-1.5,14.3v7.6c0,5,0.5,9.5,1.4,13.4
		c0.9,3.9,2.6,7.2,5,9.9c2.4,2.7,5.6,4.8,9.8,6.2c4.1,1.4,9.4,2.2,15.8,2.2h11.4c1.8,0,3.8,0,5.7-0.1c2,0,4.2-0.1,6.7-0.2l2.7-13.5
		c-5.9,0.2-10.9,0.3-15,0.3h-10.8c-3.2,0-5.8-0.2-7.8-0.7c-2-0.4-3.5-1.3-4.7-2.4c-1.1-1.2-1.9-2.8-2.2-4.9c-0.4-2.1-0.5-4.7-0.5-8
		H881c2,0,3.6-0.2,5-0.5c1.3-0.4,2.4-1.1,3.3-2.2c0.9-1.1,1.5-2.6,1.8-4.5c0.4-1.9,0.5-4.4,0.5-7.5v-2.3c0-3.8-0.5-7.3-1.5-10.4
		C889.2,122.7,887.5,119.9,885.1,117.5 M874.9,140.5h-29c0-3.4,0.2-6.2,0.5-8.4c0.4-2.2,1.1-4,2.2-5.3c1.1-1.3,2.6-2.2,4.4-2.7
		c1.9-0.5,4.4-0.7,7.4-0.7c2.8,0,5.1,0.2,7,0.7c1.9,0.5,3.4,1.3,4.4,2.4c1.1,1.1,1.8,2.5,2.3,4.3c0.4,1.8,0.7,4,0.7,6.6V140.5z
		 M938.4,112h-8.8c-4.5,0-8.5,0.4-12,1.3c-3.5,0.9-6.5,2.2-8.9,4.1c-2.4,1.9-4.3,4.4-5.5,7.5c-1.3,3.1-1.9,6.9-1.9,11.4v46.1h17.5
		v-43.3c0-2.2,0.1-4,0.3-5.6c0.2-1.6,0.8-2.9,1.7-3.9c0.9-1,2.2-1.8,3.8-2.4c1.6-0.5,3.9-0.8,6.7-0.8c1.4,0,3.2,0,5.4,0.1
		c2.2,0,4.1,0.1,5.9,0.2l2.8-14.6C943.2,112.1,940.8,112,938.4,112"/>
	<path class="st1" d="M151.3,97.6c-2.8-7-12.7-7-15.5,0l-36.7,90.8h19.4l25-61.9l19.3,47.7h0c2,5,6.9,8.2,12.2,8.2h0
		c3.4,0,6.7-1.3,9.1-3.6L151.3,97.6z M143.6,86.4c5.9,0,11.1,3.5,13.3,9l31.1,77l9.7-24l-24.1-59.7c-5-12.3-16.7-20.2-30-20.2
		c-13.3,0-25,7.9-30,20.2l-40.3,99.8h19.4l37.6-93C132.5,89.9,137.7,86.4,143.6,86.4 M143.6,62.4c15.7,0,29.7,9.4,35.6,24l21.8,54
		l9.7-24l-14.8-36.7c-8.7-21.4-29.2-35.3-52.3-35.3c-23.1,0-43.6,13.8-52.3,35.3L47.4,188.4h19.4l41.2-102
		C113.9,71.8,127.9,62.4,143.6,62.4 M242.6,53.4l-49.7,123c-2.9,7.3-10,12-17.8,12h31.5c12.2,0,23.2-7.4,27.8-18.8l47-116.2H242.6z"
		/>
</g>
</svg>
